<svg viewBox="0 0 120 120" xmlns="http://www.w3.org/2000/svg">
  <ellipse cx="60" cy="60" rx="46" ry="44" fill="#E7F7F4"/>
  <rect x="20" y="88" width="82" height="5" rx="2.5" fill="#B6DDD5"/>
  <rect x="28" y="58" width="30" height="30" rx="3" fill="#5EEAD4"/>
  <rect x="58" y="46" width="34" height="42" rx="3" fill="#2DD4BF"/>
  <rect x="34" y="64" width="7" height="7" rx="1.5" fill="#0F766E"/>
  <rect x="45" y="64" width="7" height="7" rx="1.5" fill="#0F766E"/>
  <rect x="34" y="75" width="7" height="7" rx="1.5" fill="#0F766E"/>
  <rect x="45" y="75" width="7" height="7" rx="1.5" fill="#0F766E"/>
  <rect x="64" y="56" width="8" height="8" rx="1.5" fill="#0D9488"/>
  <rect x="78" y="56" width="8" height="8" rx="1.5" fill="#0D9488"/>
  <rect x="64" y="70" width="8" height="8" rx="1.5" fill="#0D9488"/>
  <rect x="78" y="70" width="8" height="8" rx="1.5" fill="#0D9488"/>
  <rect x="66" y="30" width="7" height="16" rx="2" fill="#64748B"/>
  <rect x="80" y="26" width="7" height="20" rx="2" fill="#475569"/>
  <circle cx="69" cy="24" r="5" fill="#CBD5E1" opacity="0.9"/>
  <circle cx="84" cy="18" r="6" fill="#CBD5E1" opacity="0.75"/>
  <circle cx="76" cy="14" r="4" fill="#E2E8F0" opacity="0.8"/>
  <path d="M22 74c-4 0-6-3-6-6 3 0 6 2 6 6z" fill="#22C55E"/>
</svg>
